<svg width="50.000000" height="50.000000" viewBox="0 0 50 50" fill="none" xmlns="http://www.w3.org/2000/svg" xmlns:xlink="http://www.w3.org/1999/xlink">
	<desc>
			Created with Pixso.
	</desc>
	<defs>
		<clipPath id="clip2212_5">
			<rect id="bi:telegram" width="50.000000" height="50.000000" fill="white" fill-opacity="0"/>
		</clipPath>
	</defs>
	<rect id="bi:telegram" width="50.000000" height="50.000000" fill="#FFFFFF" fill-opacity="0"/>
	<g clip-path="url(#clip2212_5)">
		<path id="Vector" d="M47.9999 24C47.9999 30.3652 45.4713 36.4697 40.9705 40.9705C36.4696 45.4714 30.3651 48 23.9999 48C17.6347 48 11.5302 45.4714 7.02933 40.9705C2.52844 36.4697 -0.00012207 30.3652 -0.00012207 24C-0.00012207 17.6348 2.52844 11.5303 7.02933 7.02954C11.5302 2.52856 17.6347 0 23.9999 0C30.3651 0 36.4696 2.52856 40.9705 7.02954C45.4713 11.5303 47.9999 17.6348 47.9999 24ZM24.8609 17.718C22.5269 18.6899 17.8589 20.7 10.8629 23.748C9.72888 24.198 9.13187 24.6421 9.07788 25.074C8.98788 25.803 9.90289 26.0911 11.1479 26.4839L11.6729 26.6489C12.8969 27.0481 14.5469 27.5129 15.4019 27.531C16.1819 27.5491 17.0489 27.231 18.0059 26.571C24.5429 22.158 27.9179 19.929 28.1279 19.8811C28.2779 19.845 28.4879 19.803 28.6259 19.929C28.7669 20.052 28.7519 20.2891 28.7369 20.3521C28.6469 20.739 25.0559 24.075 23.1989 25.803C22.6199 26.343 22.2089 26.7241 22.1249 26.811C21.9399 27 21.7519 27.186 21.5609 27.3689C20.4209 28.467 19.5689 29.2891 21.6059 30.6331C22.5869 31.281 23.3729 31.812 24.1559 32.3459C25.0079 32.928 25.8599 33.5071 26.9639 34.2329C27.2429 34.4131 27.5129 34.6079 27.7739 34.7939C28.7669 35.502 29.6639 36.1379 30.7649 36.0359C31.4069 35.9761 32.0699 35.376 32.4059 33.5759C33.2009 29.325 34.7639 20.1179 35.1239 16.323C35.1458 16.0076 35.1328 15.6907 35.0849 15.3779C35.0566 15.1257 34.9346 14.8933 34.7429 14.7271C34.4699 14.5386 34.1445 14.4409 33.8129 14.448C32.9129 14.4629 31.5239 14.946 24.8609 17.718Z" fill="#FFFFFF" fill-opacity="1.000000" fill-rule="nonzero"/>
	</g>
</svg>
