<svg width="50.000000" height="50.000000" viewBox="0 0 50 50" fill="none" xmlns="http://www.w3.org/2000/svg" xmlns:xlink="http://www.w3.org/1999/xlink">
	<desc>
			Created with Pixso.
	</desc>
	<defs>
		<clipPath id="clip2212_8">
			<rect id="foundation:social-pinterest" width="50.000000" height="50.000000" fill="white" fill-opacity="0"/>
		</clipPath>
	</defs>
	<rect id="foundation:social-pinterest" width="50.000000" height="50.000000" fill="#FFFFFF" fill-opacity="0"/>
	<g clip-path="url(#clip2212_8)">
		<path id="Vector" d="M25.0005 0C11.1947 0 -0.000152588 11.1936 -0.000152588 25.0007C-0.000152588 35.2378 6.15561 44.0315 14.9646 47.8982C14.8941 46.1526 14.9511 44.0557 15.3998 42.1589C15.8806 40.1282 18.6165 28.5359 18.6165 28.5359C18.6165 28.5359 17.8178 26.9397 17.8178 24.5808C17.8178 20.8762 19.9652 18.1077 22.6383 18.1077C24.912 18.1077 26.0107 19.8154 26.0107 21.8608C26.0107 24.1467 24.5537 27.5635 23.8037 30.7327C23.1768 33.386 25.1338 35.5481 27.7498 35.5481C32.4864 35.5481 35.6761 29.4648 35.6761 22.2559C35.6761 16.7783 31.9864 12.677 25.2742 12.677C17.6902 12.677 12.9659 18.332 12.9659 24.6487C12.9659 26.8281 13.6082 28.3635 14.6146 29.5513C15.0768 30.0981 15.1409 30.3179 14.9736 30.946C14.8537 31.4058 14.5781 32.5129 14.4646 32.9519C14.2986 33.5852 13.7857 33.8108 13.2127 33.5776C9.71973 32.1514 8.0928 28.3262 8.0928 24.0264C8.0928 16.9238 14.0819 8.40894 25.9601 8.40894C35.5056 8.40894 41.7877 15.3159 41.7877 22.7319C41.7877 32.5378 36.3351 39.8647 28.2979 39.8647C25.5999 39.8647 23.0607 38.405 22.1909 36.7488C22.1909 36.7488 20.7396 42.5078 20.4326 43.6218C19.9024 45.5493 18.8646 47.4763 17.9159 48.9768C20.2162 49.657 22.6024 50.0024 25.0011 50.0024C38.8062 50.0012 49.9998 38.8071 49.9998 25.0007C49.9998 11.1936 38.8063 0 25.0005 0Z" fill="#FFFFFF" fill-opacity="1.000000" fill-rule="nonzero"/>
	</g>
</svg>
