<svg width="50.000000" height="50.000000" viewBox="0 0 50 50" fill="none" xmlns="http://www.w3.org/2000/svg" xmlns:xlink="http://www.w3.org/1999/xlink">
	<desc>
			Created with Pixso.
	</desc>
	<defs>
		<clipPath id="clip2212_3">
			<rect id="entypo-social:vk-with-circle" width="50.000000" height="50.000000" fill="white" fill-opacity="0"/>
		</clipPath>
	</defs>
	<rect id="entypo-social:vk-with-circle" width="50.000000" height="50.000000" fill="#FFFFFF" fill-opacity="0"/>
	<g clip-path="url(#clip2212_3)">
		<path id="Vector" d="M24.9999 1C11.7449 1 0.999878 11.7451 0.999878 25C0.999878 38.2549 11.7449 49 24.9999 49C38.2549 49 48.9999 38.2549 48.9999 25C48.9999 11.7451 38.2549 1 24.9999 1ZM34.2299 28.0774C34.2299 28.0774 36.3524 30.1726 36.8749 31.145C36.8899 31.165 36.8974 31.1851 36.9024 31.1951C37.1149 31.5525 37.1649 31.8301 37.0599 32.0376C36.8849 32.3826 36.2849 32.5525 36.0799 32.5674L32.3299 32.5674C32.0699 32.5674 31.5249 32.5 30.8649 32.0449C30.3574 31.6899 29.8574 31.1074 29.3699 30.54C28.6424 29.6951 28.0124 28.9651 27.3774 28.9651C27.2968 28.9648 27.2166 28.9775 27.1399 29.0024C26.6599 29.1575 26.0449 29.8425 26.0449 31.6675C26.0449 32.2375 25.5949 32.5649 25.2774 32.5649L23.5599 32.5649C22.9749 32.5649 19.9274 32.3601 17.2274 29.5125C13.9224 26.0249 10.9474 19.03 10.9224 18.9651C10.7349 18.5125 11.1224 18.27 11.5449 18.27L15.3324 18.27C15.8374 18.27 16.0024 18.5774 16.1174 18.8501C16.2524 19.1675 16.7474 20.4299 17.5599 21.8501C18.8774 24.165 19.6849 25.105 20.3324 25.105C20.4538 25.1035 20.5731 25.0728 20.6799 25.0149C21.5249 24.5449 21.3674 21.5325 21.3299 20.9075C21.3299 20.79 21.3274 19.5601 20.8949 18.97C20.5849 18.5425 20.0574 18.3799 19.7374 18.3201C19.8669 18.1414 20.0375 17.9963 20.2349 17.8975C20.8149 17.6074 21.8599 17.5649 22.8974 17.5649L23.4749 17.5649C24.5999 17.5801 24.8899 17.6526 25.2974 17.7549C26.1224 17.9524 26.1399 18.4851 26.0674 20.3076C26.0449 20.825 26.0224 21.4099 26.0224 22.1001C26.0224 22.25 26.0149 22.4099 26.0149 22.5801C25.9899 23.5076 25.9599 24.5601 26.6149 24.9924C26.7003 25.0461 26.7991 25.0747 26.8999 25.075C27.1274 25.075 27.8124 25.075 29.6674 21.8926C30.2395 20.8682 30.7366 19.8037 31.1549 18.7075C31.1924 18.6426 31.3024 18.4424 31.4324 18.365C31.5283 18.3162 31.6347 18.2913 31.7424 18.2925L36.1949 18.2925C36.6799 18.2925 37.0124 18.365 37.0749 18.5525C37.1849 18.8501 37.0549 19.7576 35.0224 22.51L34.1149 23.7075C32.2724 26.1226 32.2724 26.2451 34.2299 28.0774Z" fill="#FFFFFF" fill-opacity="1.000000" fill-rule="nonzero"/>
	</g>
</svg>
